<svg xmlns:xlink="http://www.w3.org/1999/xlink" xmlns="http://www.w3.org/2000/svg" width="477.75" height="38.04318192599544" viewBox="0 0 369.969696969697 29.460647805177576" class="css-1j8o68f"><defs id="SvgjsDefs1369"></defs><g id="SvgjsG1370" featurekey="5TMTKC-0" transform="matrix(0.11188451463959433,0,0,0.11188451463959433,-2.128528797574444,-14.015459498037883)" fill="#111111"><g xmlns="http://www.w3.org/2000/svg" fill="#111111"><path d="M170.636,166.226l-21.693-32.845c-2.016-3.054-6.044-4.04-9.243-2.26c-41.052,22.83-72.026,51.722-92.061,85.874   c-20.501,34.948-30.069,76.272-28.436,122.827c0.126,3.607,2.976,6.527,6.58,6.742l38.979,2.316   c0.001,0.001,0.003,0.001,0.004,0.001L286.71,362.2c0.142,0.009,0.28,0.013,0.42,0.013c0.013,0,0.022,0,0.035,0   c3.858-0.009,6.983-3.14,6.983-7c0-1.602-0.537-3.078-1.442-4.257L170.636,166.226z M70.528,274.458   c-0.302,0.858-0.594,1.722-0.885,2.585c-0.381,1.133-0.755,2.27-1.118,3.411c-0.278,0.877-0.551,1.758-0.818,2.642   c-0.347,1.146-0.684,2.295-1.012,3.448c-0.254,0.894-0.504,1.788-0.747,2.687c-0.314,1.162-0.615,2.33-0.91,3.5   c-0.228,0.904-0.456,1.811-0.672,2.721c-0.282,1.188-0.549,2.379-0.813,3.572c-0.201,0.908-0.403,1.813-0.593,2.729   c-0.253,1.221-0.487,2.446-0.721,3.675c-0.172,0.904-0.349,1.808-0.511,2.716c-0.225,1.267-0.428,2.541-0.632,3.815   c-0.142,0.886-0.292,1.769-0.424,2.658c-0.2,1.35-0.375,2.712-0.553,4.071c-0.108,0.83-0.228,1.652-0.328,2.485   c-0.187,1.56-0.346,3.134-0.503,4.707c-0.064,0.647-0.143,1.288-0.203,1.938c-0.204,2.209-0.38,4.434-0.527,6.673l-25.518-1.519   c-1.071-82.432,34.266-143.512,107.832-186.41l14.234,21.552c-0.03,0.021-0.06,0.042-0.09,0.063   c-0.346,0.236-0.679,0.479-1.023,0.716c-1.57,1.083-3.13,2.17-4.662,3.274c-0.643,0.463-1.268,0.938-1.905,1.405   c-1.211,0.89-2.423,1.778-3.61,2.682c-0.714,0.543-1.41,1.096-2.115,1.645c-1.084,0.843-2.17,1.686-3.233,2.54   c-0.73,0.587-1.445,1.183-2.166,1.775c-1.011,0.832-2.022,1.664-3.015,2.506c-0.727,0.617-1.44,1.242-2.156,1.865   c-0.959,0.834-1.916,1.67-2.856,2.515c-0.712,0.64-1.413,1.286-2.115,1.931c-0.917,0.844-1.83,1.691-2.729,2.545   c-0.692,0.658-1.375,1.32-2.057,1.984c-0.883,0.86-1.758,1.724-2.622,2.594c-0.667,0.671-1.327,1.345-1.983,2.021   c-0.852,0.879-1.694,1.765-2.527,2.654c-0.639,0.682-1.275,1.365-1.903,2.053c-0.825,0.904-1.638,1.814-2.444,2.729   c-0.606,0.687-1.212,1.374-1.808,2.066c-0.805,0.936-1.594,1.88-2.38,2.827c-0.569,0.685-1.141,1.369-1.7,2.06   c-0.789,0.975-1.56,1.96-2.329,2.947c-0.527,0.677-1.061,1.351-1.58,2.033c-0.786,1.034-1.549,2.079-2.313,3.125   c-0.473,0.648-0.955,1.292-1.42,1.944c-0.81,1.136-1.594,2.285-2.378,3.435c-0.393,0.576-0.797,1.146-1.183,1.726   c-0.93,1.394-1.832,2.804-2.724,4.218c-0.218,0.346-0.448,0.686-0.664,1.033c-1.114,1.789-2.199,3.592-3.253,5.412   c-0.08,0.138-0.154,0.28-0.234,0.418c-0.957,1.661-1.893,3.334-2.802,5.021c-0.299,0.555-0.581,1.12-0.874,1.677   c-0.674,1.28-1.346,2.563-1.991,3.856c-0.341,0.684-0.665,1.377-0.998,2.065c-0.573,1.182-1.145,2.364-1.695,3.559   c-0.347,0.754-0.677,1.516-1.015,2.272c-0.509,1.145-1.016,2.287-1.504,3.44c-0.338,0.8-0.662,1.606-0.99,2.411   c-0.46,1.129-0.917,2.259-1.357,3.396c-0.322,0.834-0.632,1.672-0.944,2.51C71.341,272.193,70.927,273.322,70.528,274.458z    M72.533,335.324c0.136-2.109,0.298-4.204,0.486-6.283c0.048-0.529,0.111-1.05,0.162-1.577c0.152-1.571,0.309-3.141,0.492-4.694   c0.089-0.758,0.196-1.504,0.292-2.258c0.167-1.312,0.333-2.623,0.522-3.924c0.12-0.824,0.256-1.641,0.385-2.461   c0.19-1.213,0.379-2.426,0.588-3.627c0.148-0.852,0.311-1.693,0.469-2.539c0.216-1.156,0.433-2.313,0.667-3.461   c0.174-0.855,0.361-1.706,0.546-2.557c0.243-1.123,0.49-2.243,0.751-3.355c0.2-0.854,0.41-1.699,0.62-2.545   c0.272-1.098,0.549-2.189,0.839-3.275c0.225-0.846,0.458-1.688,0.693-2.524c0.301-1.074,0.611-2.146,0.929-3.21   c0.244-0.814,0.492-1.629,0.746-2.438c-0.182,1.563-0.08,3.16,0.335,4.729c0.874,3.303,2.987,6.069,5.996,7.815   c1.926,1.1,4.113,1.68,6.323,1.68c4.534,0,8.771-2.44,11.056-6.369c3.525-6.053,1.447-13.866-4.693-17.456   c-1.927-1.101-4.116-1.683-6.33-1.683c-4.558,0-8.8,2.453-11.051,6.369c-0.021,0.034-0.036,0.072-0.057,0.107   c0.097-0.281,0.189-0.563,0.287-0.848c0.367-1.053,0.746-2.098,1.13-3.141c0.291-0.791,0.582-1.582,0.883-2.367   c0.404-1.053,0.823-2.096,1.245-3.138c0.308-0.76,0.611-1.521,0.928-2.274c0.447-1.063,0.913-2.117,1.379-3.172   c0.319-0.719,0.63-1.439,0.958-2.154c0.502-1.098,1.027-2.182,1.55-3.268c0.316-0.654,0.624-1.316,0.948-1.968   c0.596-1.197,1.217-2.381,1.839-3.565c0.276-0.525,0.541-1.057,0.822-1.58c0.891-1.655,1.807-3.297,2.75-4.925   c0.025-0.044,0.049-0.089,0.074-0.133c0.977-1.683,1.982-3.35,3.014-5.004c0.276-0.442,0.568-0.876,0.848-1.316   c0.759-1.194,1.521-2.386,2.31-3.564c0.394-0.589,0.806-1.169,1.208-1.754c0.698-1.018,1.396-2.036,2.116-3.042   c0.456-0.637,0.929-1.266,1.394-1.899c0.691-0.941,1.383-1.882,2.095-2.813c0.501-0.656,1.017-1.305,1.528-1.956   c0.702-0.895,1.405-1.788,2.125-2.673c0.539-0.662,1.09-1.318,1.639-1.975c0.72-0.861,1.444-1.72,2.182-2.573   c0.572-0.66,1.153-1.315,1.736-1.97c0.743-0.835,1.492-1.668,2.253-2.495c0.602-0.654,1.21-1.304,1.822-1.953   c0.77-0.815,1.548-1.625,2.334-2.432c0.629-0.645,1.262-1.287,1.902-1.926c0.8-0.799,1.612-1.593,2.43-2.383   c0.651-0.63,1.304-1.259,1.966-1.884c0.836-0.789,1.687-1.57,2.541-2.351c0.671-0.613,1.34-1.226,2.021-1.834   c0.877-0.782,1.771-1.556,2.666-2.329c0.685-0.592,1.366-1.186,2.061-1.772c0.927-0.782,1.874-1.554,2.819-2.327   c0.69-0.564,1.374-1.132,2.075-1.692c1-0.799,2.024-1.588,3.045-2.378c0.671-0.519,1.331-1.042,2.011-1.557   c1.148-0.869,2.323-1.727,3.496-2.584c0.578-0.423,1.144-0.852,1.728-1.271c1.762-1.265,3.549-2.518,5.366-3.757l110.746,167.591   L72.533,335.324z M93.33,285.408c0.158-0.271,0.525-0.588,1.044-0.588c0.216,0,0.435,0.058,0.661,0.187   c0.266,0.154,0.473,0.431,0.554,0.737c0.086,0.322,0.035,0.691-0.116,0.949c-0.231,0.402-0.902,0.904-1.74,0.423   C93.158,286.779,92.978,286.014,93.33,285.408z" fill="#111111"></path><path d="M161.487,252.069c0.973,3.635,3.299,6.667,6.597,8.572c2.121,1.201,4.528,1.838,6.96,1.838   c5.009,0,9.672-2.685,12.169-7.002c1.876-3.244,2.379-7.028,1.418-10.656c-0.965-3.642-3.288-6.682-6.558-8.572   c-2.134-1.225-4.557-1.872-7.007-1.872c-5.007,0-9.673,2.691-12.175,7.02C161.013,244.644,160.514,248.434,161.487,252.069z" fill="#111111"></path><path d="M142.188,303.293c-2.133-1.232-4.558-1.884-7.014-1.884c-4.989,0-9.653,2.68-12.188,7.021   c-1.878,3.25-2.375,7.036-1.4,10.662c0.974,3.617,3.297,6.643,6.545,8.518c2.132,1.229,4.557,1.882,7.014,1.882   c5.012,0,9.681-2.69,12.185-7.021c1.876-3.246,2.375-7.027,1.404-10.648C147.762,308.193,145.435,305.165,142.188,303.293z    M135.145,315.49l-6.099-3.557l6.156,3.539C135.195,315.479,135.169,315.49,135.145,315.49z" fill="#111111"></path><path d="M223.435,329.553c2.142,1.237,4.577,1.891,7.042,1.891c5.021,0,9.686-2.702,12.16-7.028   c1.878-3.25,2.375-7.036,1.399-10.661c-0.973-3.617-3.296-6.643-6.546-8.52c-2.131-1.229-4.556-1.879-7.013-1.879   c-5.013,0-9.682,2.689-12.199,7.047C214.44,317.105,216.754,325.697,223.435,329.553z" fill="#111111"></path><path d="M148.688,209.859c-3.051,2.374-3.601,6.772-1.227,9.823c3.106,3.992,2.077,5.345,1.396,6.24   c-2.34,3.077-1.744,7.469,1.333,9.81c1.267,0.963,2.756,1.429,4.233,1.429c2.112,0,4.199-0.952,5.577-2.762   c3.073-4.041,6.968-12.443-1.489-23.313C156.137,208.035,151.739,207.486,148.688,209.859z" fill="#111111"></path><path d="M137.021,263.665c-3.064,2.356-3.638,6.752-1.281,9.815c3.121,4.059,2.09,5.42,1.407,6.321   c-2.333,3.081-1.726,7.474,1.357,9.806c1.264,0.957,2.748,1.42,4.219,1.42c2.118,0,4.21-0.957,5.587-2.775   c3.047-4.025,6.908-12.406-1.473-23.307C144.48,261.881,140.085,261.307,137.021,263.665z" fill="#111111"></path><path d="M193.029,298.789c-2.342,3.076-1.746,7.468,1.33,9.811c1.267,0.965,2.757,1.43,4.235,1.43c2.111,0,4.198-0.949,5.575-2.76   c3.071-4.033,6.965-12.426-1.459-23.302c-2.367-3.057-6.764-3.612-9.821-1.247c-3.056,2.366-3.615,6.764-1.248,9.819   C194.741,296.541,193.711,297.895,193.029,298.789z" fill="#111111"></path><path d="M96.104,307.822c-3.056,2.367-3.614,6.765-1.247,9.82c3.098,3.998,2.068,5.353,1.386,6.248   c-2.342,3.074-1.746,7.467,1.33,9.81c1.267,0.965,2.757,1.431,4.235,1.431c2.111,0,4.198-0.951,5.575-2.76   c3.072-4.035,6.967-12.43-1.458-23.303C103.557,306.014,99.16,305.454,96.104,307.822z" fill="#111111"></path><path d="M488.21,208.222l-37.335-12.455c-0.003-0.001-0.006-0.002-0.009-0.003l-210.62-70.139   c-2.514-0.836-5.288-0.181-7.163,1.693c-1.874,1.875-2.528,4.648-1.689,7.164l70.3,210.752l12.352,37.033   c0.971,2.907,3.688,4.784,6.637,4.784c0.521,0,1.052-0.059,1.577-0.18c45.407-10.472,82.868-30.397,111.344-59.231   c27.825-28.18,47.737-65.55,59.182-111.073C493.677,213.018,491.683,209.38,488.21,208.222z M312.781,334.229l-63.676-190.896   l190.673,63.495c-0.729,2.076-1.479,4.126-2.243,6.154c-0.245,0.647-0.504,1.279-0.752,1.922c-0.535,1.379-1.069,2.759-1.622,4.116   c-0.319,0.783-0.652,1.551-0.979,2.327c-0.501,1.194-1,2.391-1.516,3.569c-0.361,0.823-0.734,1.632-1.104,2.447   c-0.5,1.109-1,2.219-1.515,3.312c-0.392,0.832-0.794,1.651-1.19,2.474c-0.513,1.053-1.021,2.105-1.547,3.144   c-0.416,0.828-0.844,1.645-1.269,2.463c-0.526,1.013-1.056,2.024-1.595,3.023c-0.438,0.812-0.883,1.616-1.33,2.418   c-0.546,0.982-1.098,1.96-1.656,2.929c-0.458,0.794-0.922,1.583-1.389,2.368c-0.568,0.955-1.145,1.903-1.726,2.844   c-0.476,0.771-0.955,1.54-1.438,2.302c-0.594,0.935-1.196,1.86-1.804,2.781c-0.489,0.744-0.98,1.487-1.479,2.224   c-0.624,0.92-1.258,1.826-1.896,2.731c-0.502,0.713-1.002,1.427-1.512,2.13c-0.659,0.911-1.331,1.811-2.004,2.704   c-0.507,0.675-1.01,1.354-1.521,2.021c-0.706,0.912-1.428,1.812-2.146,2.709c-0.501,0.625-0.998,1.258-1.507,1.875   c-0.773,0.939-1.564,1.861-2.355,2.785c-0.474,0.553-0.938,1.113-1.42,1.66c-0.914,1.042-1.848,2.063-2.781,3.081   c-0.375,0.407-0.74,0.826-1.118,1.229c-1.329,1.422-2.68,2.82-4.051,4.195c-0.037,0.039-0.077,0.074-0.115,0.112   c-1.327,1.329-2.677,2.638-4.044,3.923c-0.437,0.409-0.885,0.805-1.322,1.211c-0.98,0.903-1.963,1.807-2.964,2.689   c-0.546,0.48-1.104,0.947-1.656,1.424c-0.914,0.787-1.828,1.574-2.759,2.344c-0.604,0.5-1.223,0.986-1.833,1.479   c-0.898,0.725-1.798,1.446-2.712,2.155c-0.646,0.5-1.303,0.987-1.955,1.479c-0.9,0.681-1.803,1.354-2.717,2.021   c-0.681,0.492-1.365,0.975-2.053,1.457c-0.912,0.645-1.829,1.282-2.757,1.912c-0.22,0.148-0.441,0.295-0.664,0.441   c0.005-0.004,0.011-0.008,0.017-0.014c2.408-2.407,3.734-5.614,3.734-9.028c0-3.415-1.326-6.621-3.735-9.029   c-2.408-2.405-5.61-3.729-9.021-3.729c-3.406,0-6.607,1.323-9.021,3.731c-4.979,4.979-4.979,13.075,0.003,18.059   c2.406,2.404,5.608,3.729,9.018,3.729c1.629,0,3.207-0.311,4.678-0.89c-0.709,0.448-1.421,0.896-2.138,1.335   c-0.952,0.587-1.913,1.165-2.879,1.736c-0.745,0.44-1.492,0.879-2.245,1.313c-0.979,0.563-1.971,1.117-2.966,1.666   c-0.76,0.419-1.521,0.838-2.287,1.249c-1.015,0.544-2.041,1.075-3.069,1.604c-0.768,0.396-1.531,0.791-2.309,1.179   c-1.057,0.524-2.127,1.038-3.198,1.551c-0.77,0.367-1.533,0.737-2.311,1.099c-1.117,0.519-2.251,1.02-3.384,1.521   c-0.75,0.332-1.493,0.671-2.25,0.995c-1.222,0.522-2.458,1.029-3.696,1.535c-0.691,0.281-1.373,0.571-2.07,0.851   c-1.465,0.582-2.952,1.144-4.441,1.701c-0.486,0.182-0.964,0.372-1.452,0.553C316.776,332.85,314.789,333.549,312.781,334.229z    M355.637,301.25c-0.454,0.454-1.293,0.457-1.751-0.001c-0.232-0.233-0.368-0.554-0.368-0.875s0.136-0.64,0.37-0.876   c0.229-0.229,0.557-0.363,0.873-0.363c0.32,0,0.648,0.137,0.881,0.369C356.13,299.992,356.129,300.758,355.637,301.25z    M325.293,371.734l-8.082-24.229c2.126-0.72,4.229-1.466,6.313-2.233c0.611-0.226,1.212-0.467,1.819-0.695   c1.481-0.561,2.962-1.12,4.422-1.703c0.775-0.313,1.536-0.639,2.307-0.954c1.273-0.524,2.552-1.05,3.811-1.594   c0.821-0.355,1.629-0.728,2.443-1.091c1.186-0.528,2.372-1.059,3.542-1.604c0.833-0.39,1.655-0.792,2.479-1.188   c1.131-0.545,2.264-1.092,3.379-1.653c0.828-0.416,1.647-0.845,2.471-1.271c1.092-0.565,2.182-1.137,3.261-1.72   c0.817-0.44,1.627-0.892,2.436-1.342c1.063-0.592,2.121-1.188,3.171-1.796c0.8-0.463,1.593-0.934,2.384-1.403   c1.038-0.618,2.068-1.247,3.094-1.883c0.778-0.481,1.553-0.969,2.322-1.461c1.018-0.647,2.024-1.312,3.028-1.978   c0.752-0.498,1.504-1,2.248-1.508c1.002-0.686,1.994-1.381,2.981-2.082c0.723-0.513,1.446-1.022,2.162-1.546   c0.994-0.725,1.975-1.464,2.954-2.204c0.687-0.521,1.375-1.037,2.055-1.563c0.995-0.774,1.976-1.565,2.955-2.354   c0.641-0.521,1.286-1.031,1.92-1.558c1.017-0.845,2.016-1.706,3.015-2.567c0.575-0.496,1.157-0.984,1.729-1.486   c1.088-0.963,2.155-1.945,3.224-2.933c0.46-0.424,0.929-0.839,1.385-1.268c1.393-1.31,2.764-2.644,4.115-3.991   c0.118-0.117,0.24-0.229,0.358-0.35c1.483-1.487,2.946-3.002,4.388-4.537c0.285-0.307,0.563-0.622,0.846-0.932   c1.129-1.22,2.252-2.447,3.354-3.697c0.466-0.529,0.918-1.073,1.379-1.608c0.902-1.048,1.806-2.096,2.688-3.164   c0.517-0.623,1.018-1.261,1.524-1.892c0.81-1.002,1.616-2.004,2.407-3.022c0.531-0.685,1.051-1.382,1.574-2.073   c0.747-0.988,1.491-1.978,2.224-2.979c0.533-0.729,1.056-1.474,1.58-2.213c0.701-0.989,1.397-1.981,2.086-2.986   c0.523-0.769,1.041-1.544,1.557-2.319c0.665-1.002,1.326-2.008,1.979-3.022c0.512-0.8,1.017-1.604,1.52-2.41   c0.635-1.021,1.262-2.044,1.881-3.076c0.494-0.825,0.985-1.655,1.474-2.489c0.604-1.041,1.204-2.091,1.797-3.147   c0.475-0.847,0.948-1.696,1.415-2.552c0.581-1.068,1.151-2.147,1.721-3.23c0.454-0.866,0.907-1.731,1.354-2.606   c0.56-1.101,1.104-2.214,1.65-3.329c0.432-0.879,0.862-1.756,1.283-2.644c0.542-1.143,1.069-2.301,1.597-3.459   c0.401-0.881,0.81-1.758,1.2-2.649c0.532-1.206,1.048-2.43,1.564-3.652c0.364-0.864,0.735-1.721,1.095-2.592   c0.541-1.319,1.063-2.659,1.586-3.997c0.312-0.796,0.632-1.583,0.938-2.386c0.628-1.648,1.229-3.319,1.83-4.995   c0.184-0.51,0.375-1.011,0.557-1.524c0.01-0.028,0.021-0.056,0.029-0.084l24.503,8.174   C455.135,301.527,405.237,351.438,325.293,371.734z" fill="#111111"></path><path d="M370.26,226.817c3.766,0,7.298-1.471,9.92-4.108c2.664-2.645,4.134-6.171,4.134-9.929c0-3.74-1.456-7.265-4.136-9.959   c-2.648-2.629-6.173-4.078-9.918-4.078c-3.746,0-7.269,1.449-9.95,4.111c-2.657,2.673-4.113,6.215-4.103,9.975   c0.014,3.74,1.482,7.25,4.099,9.844C362.96,225.346,366.495,226.817,370.26,226.817z" fill="#111111"></path><path d="M315.804,282.675c3.739,0,7.259-1.448,9.942-4.112c5.44-5.476,5.44-14.383-0.032-19.889   c-2.648-2.632-6.17-4.082-9.91-4.082c-3.739,0-7.26,1.449-9.944,4.116c-5.438,5.476-5.438,14.382,0.035,19.89   C308.546,281.229,312.064,282.675,315.804,282.675z" fill="#111111"></path><path d="M299.207,167.247c-2.654-2.672-6.189-4.143-9.954-4.143s-7.3,1.472-9.917,4.107c-2.652,2.632-4.121,6.142-4.134,9.883   c-0.013,3.759,1.442,7.3,4.131,10.002c2.649,2.632,6.174,4.082,9.921,4.082c3.746,0,7.27-1.45,9.951-4.113   c2.657-2.672,4.113-6.214,4.1-9.972C303.292,173.352,301.824,169.842,299.207,167.247z" fill="#111111"></path><path d="M388.945,233.471c1.277,0.999,2.796,1.483,4.303,1.483c2.082,0,4.142-0.925,5.521-2.692c0.703-0.901,1.77-2.26,6.438-0.291   c3.563,1.501,7.667-0.167,9.17-3.729s-0.166-7.668-3.729-9.171c-12.661-5.341-19.789,0.573-22.913,4.574   C385.356,226.692,385.897,231.091,388.945,233.471z" fill="#111111"></path><path d="M339.907,258.723c1.277,0.998,2.797,1.481,4.303,1.481c2.082,0,4.145-0.925,5.522-2.692   c0.707-0.906,1.777-2.271,6.483-0.313c3.572,1.485,7.668-0.203,9.152-3.773c1.483-3.569-0.204-7.667-3.773-9.152   c-12.667-5.271-19.782,0.635-22.897,4.626C336.318,251.944,336.86,256.343,339.907,258.723z" fill="#111111"></path><path d="M307.06,209.68c1.279,0.999,2.798,1.483,4.305,1.483c2.082,0,4.142-0.925,5.521-2.692c0.698-0.894,1.749-2.248,6.484-0.277   c3.572,1.484,7.667-0.204,9.152-3.773c1.483-3.569-0.204-7.667-3.773-9.152c-12.684-5.277-19.791,0.608-22.898,4.587   C303.471,202.901,304.012,207.3,307.06,209.68z" fill="#111111"></path><path d="M324.156,308.109c3.566,1.48,7.666-0.203,9.15-3.773c1.485-3.568-0.204-7.667-3.771-9.152   c-12.7-5.287-19.8,0.645-22.898,4.647c-2.367,3.058-1.807,7.453,1.251,9.819c1.274,0.985,2.782,1.465,4.279,1.465   c2.092,0,4.161-0.934,5.54-2.717C318.4,307.503,319.448,306.148,324.156,308.109z" fill="#111111"></path></g></g><g id="SvgjsG1371" featurekey="7UBp9i-0" transform="matrix(1.9692946343619617,0,0,1.9692946343619617,71.50333468811628,-10.59480535823524)" fill="#111111"><path d="M7.78 5.380000000000001 c1.6667 0 3.0666 0.47 4.2 1.41 s1.7867 2.1834 1.96 3.73 l-3.04 0 c-0.10666 -0.70666 -0.46 -1.3 -1.06 -1.78 s-1.2867 -0.72 -2.06 -0.72 c-1.2267 0 -2.18 0.44 -2.86 1.32 s-1.02 2.0734 -1.02 3.58 c0 1.4667 0.34334 2.63 1.03 3.49 s1.6367 1.29 2.85 1.29 c0.90666 0 1.64 -0.27666 2.2 -0.83 s0.90666 -1.3433 1.04 -2.37 l3.04 0 c-0.16 1.8133 -0.81 3.24 -1.95 4.28 s-2.5834 1.56 -4.33 1.56 c-2.0934 0 -3.7866 -0.69 -5.08 -2.07 s-1.94 -3.1634 -1.94 -5.35 c0 -2.2134 0.64 -4.0234 1.92 -5.43 s2.98 -2.11 5.1 -2.11 z M18.740000000000002 9.66 l0 5.86 c0 0.8 0.12666 1.42 0.38 1.86 s0.73334 0.66 1.44 0.66 c0.78666 0 1.35 -0.23334 1.69 -0.7 s0.51 -1.2133 0.51 -2.24 l0 -5.44 l2.84 0 l0 10.34 l-2.7 0 l0 -1.44 l-0.06 0 c-0.70666 1.1467 -1.7667 1.72 -3.18 1.72 c-1.3467 0 -2.31 -0.34334 -2.89 -1.03 s-0.87 -1.7433 -0.87 -3.17 l0 -6.42 l2.84 0 z M30.68 5.720000000000001 l0 2.34 l-2.84 0 l0 -2.34 l2.84 0 z M30.68 9.66 l0 10.34 l-2.84 0 l0 -10.34 l2.84 0 z M37.16 9.38 c1.3867 0 2.47 0.28002 3.25 0.84002 s1.2167 1.38 1.31 2.46 l-2.7 0 c-0.04 -0.49334 -0.22 -0.85 -0.54 -1.07 s-0.78666 -0.33 -1.4 -0.33 c-0.53334 0 -0.93 0.08 -1.19 0.24 s-0.39 0.4 -0.39 0.72 c0 0.24 0.08666 0.44 0.26 0.6 s0.43668 0.3 0.79002 0.42 s0.74334 0.22 1.17 0.3 c1.2933 0.25334 2.2066 0.51334 2.74 0.78 s0.92334 0.58666 1.17 0.96 s0.37 0.83334 0.37 1.38 c0 1.16 -0.42334 2.05 -1.27 2.67 s-1.9967 0.93 -3.45 0.93 c-1.52 0 -2.7034 -0.32666 -3.55 -0.98 s-1.2833 -1.54 -1.31 -2.66 l2.7 0 c0 0.53334 0.20666 0.95668 0.62 1.27 s0.93334 0.47 1.56 0.47 c0.53334 0 0.97668 -0.11666 1.33 -0.35 s0.53 -0.55668 0.53 -0.97002 c0 -0.26666 -0.11 -0.48666 -0.33 -0.66 s-0.53 -0.32668 -0.93 -0.46002 s-1.02 -0.28668 -1.86 -0.46002 c-0.66666 -0.13334 -1.26 -0.31334 -1.78 -0.54 s-0.91666 -0.52332 -1.19 -0.88998 s-0.41 -0.81666 -0.41 -1.35 c0 -0.68 0.16334 -1.2733 0.49 -1.78 s0.82666 -0.89 1.5 -1.15 s1.51 -0.39 2.51 -0.39 z M46.58 5.720000000000001 l0 2.34 l-2.84 0 l0 -2.34 l2.84 0 z M46.58 9.66 l0 10.34 l-2.84 0 l0 -10.34 l2.84 0 z M54.75999999999999 9.38 c1.32 0 2.2766 0.33338 2.87 1 s0.89 1.7267 0.89 3.18 l0 6.44 l-2.84 0 l0 -5.86 c0 -0.85334 -0.13666 -1.4867 -0.41 -1.9 s-0.74334 -0.62 -1.41 -0.62 c-0.77334 0 -1.3333 0.23334 -1.68 0.7 s-0.52 1.2333 -0.52 2.3 l0 5.38 l-2.84 0 l0 -10.34 l2.7 0 l0 1.44 l0.06 0 c0.70666 -1.1467 1.7667 -1.72 3.18 -1.72 z M65.46 9.38 c0.97334 0 1.84 0.22664 2.6 0.67998 s1.3567 1.11 1.79 1.97 s0.65 1.85 0.65 2.97 c0 0.10666 -0.0066602 0.28 -0.02 0.52 l-7.46 0 c0.02666 0.82666 0.24332 1.47 0.64998 1.93 s1.03 0.69 1.87 0.69 c0.52 0 0.99666 -0.13 1.43 -0.39 s0.71 -0.57666 0.83 -0.95 l2.5 0 c-0.73334 2.32 -2.3466 3.48 -4.84 3.48 c-0.94666 -0.01334 -1.8233 -0.22 -2.63 -0.62 s-1.45 -1.0233 -1.93 -1.87 s-0.72 -1.83 -0.72 -2.95 c0 -1.0533 0.24334 -2.0134 0.73 -2.88 s1.1333 -1.5133 1.94 -1.94 s1.6767 -0.64 2.61 -0.64 z M67.63999999999999 13.719999999999999 c-0.13334 -0.77334 -0.38 -1.3333 -0.74 -1.68 s-0.87334 -0.52 -1.54 -0.52 c-0.69334 0 -1.24 0.19666 -1.64 0.59 s-0.63334 0.93 -0.7 1.61 l4.62 0 z M78.86 5.380000000000001 c1.6667 0 3.0666 0.47 4.2 1.41 s1.7867 2.1834 1.96 3.73 l-3.04 0 c-0.10666 -0.70666 -0.46 -1.3 -1.06 -1.78 s-1.2867 -0.72 -2.06 -0.72 c-1.2267 0 -2.18 0.44 -2.86 1.32 s-1.02 2.0734 -1.02 3.58 c0 1.4667 0.34334 2.63 1.03 3.49 s1.6367 1.29 2.85 1.29 c0.90666 0 1.64 -0.27666 2.2 -0.83 s0.90666 -1.3433 1.04 -2.37 l3.04 0 c-0.16 1.8133 -0.81 3.24 -1.95 4.28 s-2.5834 1.56 -4.33 1.56 c-2.0934 0 -3.7866 -0.69 -5.08 -2.07 s-1.94 -3.1634 -1.94 -5.35 c0 -2.2134 0.64 -4.0234 1.92 -5.43 s2.98 -2.11 5.1 -2.11 z M92 9.38 c1.6533 0 2.96 0.50334 3.92 1.51 s1.44 2.3234 1.44 3.95 c0 1.64 -0.49 2.9566 -1.47 3.95 s-2.2766 1.49 -3.89 1.49 c-1.64 0 -2.94 -0.50334 -3.9 -1.51 s-1.44 -2.3166 -1.44 -3.93 c0 -1.6667 0.49 -2.9934 1.47 -3.98 s2.27 -1.48 3.87 -1.48 z M89.5 14.84 c0 1.0533 0.21334 1.8666 0.64 2.44 s1.0467 0.86 1.86 0.86 c0.84 0 1.47 -0.29334 1.89 -0.88 s0.63 -1.3933 0.63 -2.42 c0 -1.0667 -0.21666 -1.8867 -0.65 -2.46 s-1.0633 -0.86 -1.89 -0.86 c-0.8 0 -1.4133 0.28666 -1.84 0.86 s-0.64 1.3933 -0.64 2.46 z M105.14 9.38 c1.32 0 2.2766 0.33338 2.87 1 s0.89 1.7267 0.89 3.18 l0 6.44 l-2.84 0 l0 -5.86 c0 -0.85334 -0.13666 -1.4867 -0.41 -1.9 s-0.74334 -0.62 -1.41 -0.62 c-0.77334 0 -1.3333 0.23334 -1.68 0.7 s-0.52 1.2333 -0.52 2.3 l0 5.38 l-2.84 0 l0 -10.34 l2.7 0 l0 1.44 l0.06 0 c0.70666 -1.1467 1.7667 -1.72 3.18 -1.72 z M117 9.38 c1.32 0 2.2766 0.33338 2.87 1 s0.89 1.7267 0.89 3.18 l0 6.44 l-2.84 0 l0 -5.86 c0 -0.85334 -0.13666 -1.4867 -0.41 -1.9 s-0.74334 -0.62 -1.41 -0.62 c-0.77334 0 -1.3333 0.23334 -1.68 0.7 s-0.52 1.2333 -0.52 2.3 l0 5.38 l-2.84 0 l0 -10.34 l2.7 0 l0 1.44 l0.06 0 c0.70666 -1.1467 1.7667 -1.72 3.18 -1.72 z M127.7 9.38 c0.97334 0 1.84 0.22664 2.6 0.67998 s1.3567 1.11 1.79 1.97 s0.65 1.85 0.65 2.97 c0 0.10666 -0.0066602 0.28 -0.02 0.52 l-7.46 0 c0.02666 0.82666 0.24332 1.47 0.64998 1.93 s1.03 0.69 1.87 0.69 c0.52 0 0.99666 -0.13 1.43 -0.39 s0.71 -0.57666 0.83 -0.95 l2.5 0 c-0.73334 2.32 -2.3466 3.48 -4.84 3.48 c-0.94666 -0.01334 -1.8233 -0.22 -2.63 -0.62 s-1.45 -1.0233 -1.93 -1.87 s-0.72 -1.83 -0.72 -2.95 c0 -1.0533 0.24334 -2.0134 0.73 -2.88 s1.1333 -1.5133 1.94 -1.94 s1.6767 -0.64 2.61 -0.64 z M129.88 13.719999999999999 c-0.13334 -0.77334 -0.38 -1.3333 -0.74 -1.68 s-0.87334 -0.52 -1.54 -0.52 c-0.69334 0 -1.24 0.19666 -1.64 0.59 s-0.63334 0.93 -0.7 1.61 l4.62 0 z M139.35999999999999 9.38 c1.4 0 2.54 0.35664 3.42 1.07 s1.36 1.6633 1.44 2.85 l-2.78 0 c-0.18666 -1.1867 -0.88666 -1.78 -2.1 -1.78 c-0.74666 0 -1.3367 0.30666 -1.77 0.92 s-0.65 1.4267 -0.65 2.44 c0 0.97334 0.20666 1.76 0.62 2.36 s0.99334 0.9 1.74 0.9 c1.2933 0 2.0466 -0.7 2.26 -2.1 l2.74 0 c-0.18666 1.3733 -0.71666 2.4234 -1.59 3.15 s-2.0034 1.09 -3.39 1.09 c-1.5333 0 -2.7866 -0.49 -3.76 -1.47 s-1.46 -2.2566 -1.46 -3.83 c0 -1.7067 0.48 -3.0666 1.44 -4.08 s2.24 -1.52 3.84 -1.52 z M149.48 6.5600000000000005 l0.000019531 3.1 l2.08 0 l0 1.9 l-2.08 0 l0 5.12 c0 0.48 0.08 0.8 0.24 0.96 s0.48 0.24 0.96 0.24 c0.34666 0 0.64 -0.02666 0.88 -0.08 l0 2.22 c-0.4 0.06666 -0.96 0.1 -1.68 0.1 c-1.0933 0 -1.9067 -0.18666 -2.44 -0.56 s-0.8 -1.02 -0.8 -1.94 l0 -6.06 l-1.72 0 l0 -1.9 l1.72 0 l0 -3.1 l2.84 0 z" fill="#111111"></path></g></svg>